PathFileType	4	(X/Y/Z)	Run_300 02
DataRate	CameraRate	NumFrames	NumMarkers	Units	OrigDataRate	OrigDataStartFrame	OrigNumFrames
100	100	7	42	mm	100	113	128
Frame#	Time	LASI			RASI			LPSI			RPSI			RTH1			RTH2			RTH3			LTH1			LTH2			LTH3			RTB1			RTB2			RTB3			LTB1			LTB2			LTB3			RCAL			RTOE			RMT5			LCAL			LTOE			LMT5			LACR			RACR			CLAV			C7			RUA1			RUA2			RUA3			RLEL			RMEL			LUA1			LUA2			LUA3			LLEL			LMEL			RFAsuperior			RFAradius			RFAulna			LFAsuperior			LFAradius			LFAulna			
		X1	Y1	Z1	X2	Y2	Z2	X3	Y3	Z3	X4	Y4	Z4	X5	Y5	Z5	X6	Y6	Z6	X7	Y7	Z7	X8	Y8	Z8	X9	Y9	Z9	X10	Y10	Z10	X11	Y11	Z11	X12	Y12	Z12	X13	Y13	Z13	X14	Y14	Z14	X15	Y15	Z15	X16	Y16	Z16	X17	Y17	Z17	X18	Y18	Z18	X19	Y19	Z19	X20	Y20	Z20	X21	Y21	Z21	X22	Y22	Z22	X23	Y23	Z23	X24	Y24	Z24	X25	Y25	Z25	X26	Y26	Z26	X27	Y27	Z27	X28	Y28	Z28	X29	Y29	Z29	X30	Y30	Z30	X31	Y31	Z31	X32	Y32	Z32	X33	Y33	Z33	X34	Y34	Z34	X35	Y35	Z35	X36	Y36	Z36	X37	Y37	Z37	X38	Y38	Z38	X39	Y39	Z39	X40	Y40	Z40	X41	Y41	Z41	X42	Y42	Z42	

102	1.44	849.407006	1058.446094	-481.943447	839.2614620000001	1047.517919	-221.608734	673.9296849999999	1076.157759	-416.662394	672.350493	1085.416864	-309.648441	705.679846	868.321467	-191.137527	758.204234	744.754058	-211.503061	657.470593	652.222591	-233.533069	811.557332	857.891377	-536.989562	916.070364	747.778141	-510.653763	897.510571	624.759125	-487.541564	574.42521	418.918728	-303.171589	507.798175	412.292374	-242.072962	427.648851	333.852699	-303.86623	996.36961	412.422139	-407.403676	967.881949	316.010093	-463.94157	1017.262009	258.324153	-399.596067	281.752079	370.616428	-316.50985	304.592795	145.433368	-338.123045	264.147206	183.576663	-259.882643	943.417578	88.83046299999999	-384.507025	1163.198466	148.964146	-367.238492	1119.254986	115.594509	-455.478616	818.350659	1512.565838	-546.342954	846.184833	1539.077057	-219.835059	882.995982	1464.187353	-355.867681	767.92078	1546.158453	-374.613595	799.872722	1473.812598	-129.025277	726.43609	1406.548029	-136.591553	760.625108	1361.426266	-83.986475	729.073289	1264.212746	-36.104288	707.072934	1242.860745	-113.191097	732.597767	1465.401137	-610.815691	667.310058	1412.384079	-554.257751	627.259557	1363.005891	-608.123118	579.994421	1290.739877	-636.25657	586.295386	1280.669077	-561.476332	833.093066	1232.434004	-43.074987	972.621973	1191.259972	-100.435266	948.248614	1128.708582	-74.085058	665.851746	1215.821707	-658.666372	792.630286	1112.717127	-616.540666	739.087186	1070.385544	-640.477952	
103	1.45	848.296414	1054.176315	-482.670667	837.517677	1043.89181	-220.137454	674.019621	1069.101522	-416.20687	670.578106	1081.189398	-307.867271	710.424111	859.883856	-190.022459	765.914724	738.500309	-212.057126	668.455635	642.710563	-233.153594	814.197409	853.771993	-539.140621	919.724847	746.941669	-511.669349	902.837637	623.210205	-485.25454	583.974159	414.561374	-301.879262	517.770327	411.746595	-240.955118	432.377467	338.533795	-302.102854	991.091625	405.735301	-403.910899	960.733087	310.749339	-462.079419	1005.857489	251.076406	-395.619386	286.654354	384.272525	-313.236324	302.491494	158.388584	-335.106429	263.807187	198.320038	-255.290739	926.183396	86.292288	-383.17615	1147.261207	137.669858	-363.266903	1104.602074	104.782652	-451.978149	819.89068	1506.258414	-546.902093	845.689285	1533.189609	-220.557564	882.715137	1458.388984	-355.678612	768.647892	1541.353046	-376.072483	798.642698	1468.568231	-129.344151	724.383248	1402.11867	-137.301975	757.762345	1356.436275	-84.752844	724.7931620000001	1259.773912	-37.191892	704.02046	1238.777262	-114.506563	735.646598	1457.3299	-613.6848680000001	669.958706	1403.594719	-557.881808	630.57092	1353.75427	-611.930492	585.892902	1280.808011	-640.97746	589.6643	1271.145464	-565.3025259999999	828.584144	1226.842072	-43.11753	968.3937529999999	1184.156468	-99.088657	942.800434	1121.877347	-73.073049	672.689312	1207.608233	-661.325841	800.72955	1107.310427	-616.502443	749.3671900000001	1063.696238	-641.780662	
104	1.46	847.068305	1049.388624	-483.866413	835.947691	1038.77059	-219.026738	674.6789649999999	1061.263205	-415.95664	669.002123	1075.460099	-306.429679	714.968418	850.621772	-188.753104	773.039639	731.560529	-211.476977	679.402114	632.515554	-232.326858	816.903409	849.477756	-539.368466	923.896064	746.874434	-510.791354	906.950564	620.681775	-483.599399	595.48011	410.349992	-301.07091	529.2898729999999	410.41023	-239.750432	439.42348	342.231944	-300.196905	984.593839	397.449802	-400.40081	952.107393	304.87793	-461.440126	991.988143	242.414776	-391.663572	295.12332	396.230766	-310.705327	303.435566	169.869659	-331.264949	266.9115	211.944077	-250.437114	905.048224	86.229068	-382.018792	1127.434173	124.038257	-358.14148	1086.928185	90.31138199999999	-448.335861	821.488784	1498.897574	-547.276853	844.752343	1526.498006	-221.283905	882.529234	1451.506063	-355.274603	769.485726	1535.494603	-377.588871	796.935393	1462.468772	-129.861133	722.053825	1397.094983	-137.902464	754.632782	1350.569703	-85.59339	719.965157	1254.584196	-38.308962	700.43042	1233.949093	-115.848875	739.517739	1447.914468	-616.979967	673.529419	1393.384548	-562.614316	635.114281	1342.868254	-617.065906	593.283719	1269.055743	-646.6377660000001	593.7935230000001	1259.976338	-569.8694	823.409285	1220.262006	-43.143202	963.584562	1175.722673	-97.45057199999999	936.477069	1113.766179	-71.80771	680.4477910000001	1197.974201	-664.1292539999999	809.776074	1100.796939	-616.3299490000001	761.241176	1055.783351	-643.573236	
105	1.47	846.474602	1043.837236	-485.122152	834.890711	1032.165851	-218.356038	674.642642	1052.701977	-415.841849	667.960558	1068.261309	-305.426239	719.232183	840.76329	-187.269443	779.430644	723.8981	-209.963052	690.094705	621.688006	-231.062194	818.1191710000001	843.935168	-536.460525	926.263102	744.783844	-506.864839	908.476808	616.1569500000001	-482.721185	608.961047	405.694149	-301.05768	542.023423	408.198541	-238.224759	448.513197	344.887557	-298.134893	977.6614060000001	388.342876	-396.88694	943.223124	298.655973	-460.707175	977.535245	233.234049	-388.457929	306.580365	405.892479	-309.187214	306.865766	179.214956	-326.274726	272.978819	223.99629	-245.493504	882.124973	88.040451	-380.853754	1106.01369	107.876681	-353.714491	1066.292031	75.49842	-445.228134	823.098208	1490.521217	-547.708263	843.495809	1519.242488	-221.807926	882.2070220000001	1443.743301	-354.927701	770.045022	1528.616638	-379.160737	794.538122	1455.546664	-130.541486	719.30994	1391.326588	-138.577892	751.209645	1343.809987	-86.482134	714.576866	1248.715189	-39.490341	696.27459	1228.442138	-117.254931	743.899603	1437.353361	-620.38721	677.695117	1382.042222	-568.21051	641.239343	1330.374969	-623.4983099999999	601.768898	1255.722548	-652.841588	598.8866850000001	1247.144429	-575.347173	817.559138	1212.810859	-43.142769	958.052238	1166.039757	-95.51108600000001	929.271175	1104.525222	-70.236721	689.442852	1186.924411	-666.9151429999999	819.802632	1093.208994	-615.990418	774.288815	1046.773772	-645.500172	
106	1.48	846.6566309999999	1037.297678	-485.943941	834.380125	1024.280813	-218.304294	673.117902	1043.526051	-415.523625	667.46455	1059.791713	-305.047026	723.3860079999999	830.304469	-185.655701	785.472479	715.660441	-208.013747	700.720614	610.279641	-229.909495	817.755911	837.301147	-532.2885230000001	925.9112249999999	738.995774	-501.752729	907.26343	609.4069030000001	-482.461214	623.933413	400.14316	-301.182243	555.705564	405.174966	-236.134075	459.463916	346.519524	-295.948134	971.092641	379.735648	-393.53517	935.312104	292.715316	-458.935767	963.403224	224.843299	-386.097216	320.07409	413.104078	-308.703849	313.057004	186.172113	-320.329261	281.79905	234.161018	-240.493408	858.263491	90.345798	-379.794099	1083.892337	91.567464	-351.083271	1043.351141	63.696743	-443.240476	824.614242	1481.406026	-548.387029	842.0071369999999	1511.640646	-222.003754	881.6508239999999	1435.367008	-354.774368	770.009197	1520.834297	-380.792195	791.364446	1447.990399	-131.104803	716.021581	1384.622833	-139.467989	747.434334	1336.158155	-87.386143	708.616308	1242.222424	-40.836716	691.53903	1222.308891	-118.826902	748.369007	1425.790741	-623.671387	682.028484	1369.688975	-574.1887410000001	648.434944	1316.458895	-630.530243	610.970905	1241.089371	-659.127448	605.052894	1232.689985	-581.647496	811.050868	1204.619602	-43.073994	951.706289	1155.197214	-93.179196	921.15071	1094.311115	-68.285726	699.632989	1174.59506	-669.616883	830.6365970000001	1084.629248	-615.464937	788.065173	1036.777996	-647.098045	
107	1.49	846.8282850000001	1029.808887	-486.211025	834.297442	1015.384499	-219.294391	670.273464	1034.211678	-414.545763	667.386138	1050.308721	-305.714796	727.766166	819.181736	-184.181914	791.822117	707.2804190000001	-206.135588	711.847372	598.587938	-229.830491	816.761705	830.758446	-530.274125	923.540958	730.195614	-498.772154	904.545933	601.599795	-482.331543	639.7022899999999	394.167566	-300.425289	570.314805	401.560178	-233.51727	472.154017	347.126604	-293.663457	964.801764	373.032211	-390.606058	928.251794	288.017649	-456.44046	948.79538	218.416675	-384.101931	334.92027	418.034503	-309.028189	322.795988	190.84595	-313.757395	293.513168	242.238572	-235.407856	833.014716	92.233248	-378.98225	1060.332853	79.096915	-349.847543	1018.483383	56.76932	-442.250895	825.906705	1472.127831	-549.389803	840.170446	1504.075574	-221.816395	881.024704	1426.735619	-354.639291	769.358645	1512.608769	-382.443829	787.525517	1440.231552	-131.256305	712.15077	1377.030775	-140.681025	743.250975	1327.883675	-88.34184500000001	702.116005	1235.279753	-42.46507	686.262834	1215.724461	-120.681501	752.557059	1413.291338	-626.6966159999999	686.02088	1356.354215	-580.089792	655.846906	1301.417261	-637.225648	620.636205	1225.486385	-665.040614	612.156558	1216.913203	-588.23274	803.926831	1195.862035	-42.878138	944.530162	1143.375745	-90.381232	912.064349	1083.307926	-65.92173200000001	710.648875	1161.275091	-672.239548	842.018069	1075.19823	-614.732121	802.1746460000001	1025.972729	-648.011772	
108	1.5	845.886022	1021.807308	-486.378693	834.289588	1005.871688	-221.348887	666.803612	1025.654476	-412.772543	667.378319	1040.203924	-307.446844	732.61148	807.722361	-183.090735	798.867197	699.465179	-204.510183	723.936495	587.333861	-231.314015	815.538374	825.151235	-531.728915	920.398644	720.994208	-499.240708	902.423747	594.862518	-481.97791	656.004249	389.030122	-298.371759	586.063861	397.750906	-230.725619	486.471034	346.695538	-291.29875	957.550218	368.697147	-388.307633	919.6614520000001	285.238567	-454.441887	932.131406	214.332331	-382.136796	350.92573	420.898432	-309.819886	336.957714	193.529134	-306.934106	308.516107	248.083123	-230.237589	805.92602	93.674177	-378.366626	1034.449237	72.592184	-349.120766	991.414012	54.221986	-441.791748	826.832001	1463.370722	-550.678803	837.757468	1497.085803	-221.29262	880.559853	1418.348352	-354.181377	768.44639	1504.78719	-384.006866	783.30831	1432.786145	-131.073345	707.810897	1369.018948	-142.344199	738.63938	1319.649915	-89.459666	695.183168	1228.254292	-44.470358	680.557454	1209.057616	-122.912969	756.368525	1399.997107	-629.390775	689.2703729999999	1342.190966	-585.764652	663.089285	1285.59027	-643.04008	630.678187	1209.266352	-670.230788	619.883752	1200.345753	-594.349827	796.2166109999999	1186.770432	-42.555905	936.5338829999999	1130.860146	-87.164534	901.953531	1071.758375	-63.236431	722.205392	1147.344455	-674.738144	853.8369300000001	1065.098234	-613.737489	816.375795	1014.639553	-648.126684	
